<svg t="1712300028638" class="icon" viewBox="0 0 1024 1024" version="1.1" xmlns="http://www.w3.org/2000/svg" p-id="3839" width="200" height="200"><path d="M300.94 756.26h127.3c13.52 0 24.48-10.95 24.48-24.45 0-13.51-10.96-24.46-24.48-24.46h-127.3c-13.52 0-24.48 10.95-24.48 24.46 0 13.5 10.96 24.45 24.48 24.45z" fill="#1296db" p-id="3840"></path><path d="M511.48 22.62c-270.41 0-489.62 218.97-489.62 489.09s219.21 489.09 489.62 489.09c270.41 0 489.61-218.97 489.61-489.09S781.88 22.62 511.48 22.62z m293.76 733.64a48.92 48.92 0 0 1-14.34 34.59 48.996 48.996 0 0 1-34.62 14.32H266.67c-12.99 0-25.44-5.15-34.62-14.32a48.886 48.886 0 0 1-14.34-34.59v-97.82h587.54v97.82z m0-146.73H217.7V462.81h587.54v146.72z m0-195.63H217.7v-97.82c0-27.02 21.92-48.91 48.96-48.91h489.61c12.99 0 25.44 5.15 34.62 14.32a48.886 48.886 0 0 1 14.34 34.59v97.82z" fill="#1296db" p-id="3841"></path><path d="M300.94 560.62h127.3c8.75 0 16.83-4.66 21.2-12.23a24.39 24.39 0 0 0 0-24.45 24.461 24.461 0 0 0-21.2-12.22h-127.3c-8.75 0-16.83 4.66-21.2 12.22a24.438 24.438 0 0 0 0 24.45 24.47 24.47 0 0 0 21.2 12.23zM428.24 316.08h-127.3c-13.52 0-24.48 10.95-24.48 24.45 0 13.51 10.96 24.46 24.48 24.46h127.3c13.52 0 24.48-10.95 24.48-24.46 0-13.5-10.96-24.45-24.48-24.45z" fill="#1296db" p-id="3842"></path></svg>