<svg t="1712300094174" class="icon" viewBox="0 0 1024 1024" version="1.1" xmlns="http://www.w3.org/2000/svg" p-id="5028" width="200" height="200"><path d="M195.072 137.728h633.856a28.672 28.672 0 0 1 28.672 28.672v57.856a28.672 28.672 0 0 1-28.672 28.672H195.072a28.672 28.672 0 0 1-28.672-28.672V166.4a28.672 28.672 0 0 1 28.672-28.672z m0 173.056h633.856a28.672 28.672 0 0 1 28.672 28.672v57.344a28.672 28.672 0 0 1-28.672 28.672H195.072a28.672 28.672 0 0 1-28.672-28.672V339.456a28.672 28.672 0 0 1 28.672-29.184zM754.688 614.4a11.264 11.264 0 0 0-11.264 11.776v63.488a11.264 11.264 0 0 0 11.264 11.776h34.816a11.776 11.776 0 0 0 11.264-11.776v-64.512a11.776 11.776 0 0 0-11.264-11.776z m-115.2 0a11.264 11.264 0 0 0-11.264 11.776v63.488a11.264 11.264 0 0 0 11.264 11.776h34.304a11.776 11.776 0 0 0 11.776-11.776v-64.512a11.776 11.776 0 0 0-11.776-11.776z m-372.224 84.992a43.008 43.008 0 1 0-43.008-43.008 43.008 43.008 0 0 0 43.008 43.008z m144.384 0a43.008 43.008 0 1 0-43.008-43.008 43.008 43.008 0 0 0 40.96 43.008z m272.896 129.536H339.456v28.672a28.672 28.672 0 0 1-28.672 28.672H252.928a28.672 28.672 0 0 1-28.672-28.672v-28.672H137.728a28.672 28.672 0 0 1-28.672-28.672V512a28.672 28.672 0 0 1 28.672-28.672h748.544a28.672 28.672 0 0 1 28.672 28.672v288.256a28.672 28.672 0 0 1-28.672 28.672h-86.016v28.672a28.672 28.672 0 0 1-28.672 28.672h-57.856a28.672 28.672 0 0 1-28.672-28.672z" fill="#d5cd3e" p-id="5029"></path></svg>