<svg t="1712300169610" class="icon" viewBox="0 0 1024 1024" version="1.1" xmlns="http://www.w3.org/2000/svg" p-id="8085" width="200" height="200"><path d="M156.928 445.041778c21.219556 9.969778 35.100444 26.680889 47.36 40.192 16.938667 20.693333 24.462222 30.094222 43.278222 30.094222 18.816 0 28.216889-9.400889 43.264-30.094222 16.924444-20.693333 41.386667-48.924444 88.419556-48.924445 47.032889 0 69.603556 28.231111 88.419555 48.924445 16.924444 20.693333 24.462222 30.094222 43.264 30.094222 18.816 0 28.216889-9.400889 43.278223-30.094222 16.924444-20.693333 41.386667-48.924444 88.419555-48.924445 47.018667 0 69.603556 28.231111 88.419556 48.924445 16.924444 20.693333 24.462222 30.094222 43.264 30.094222 18.816 0 28.216889-9.400889 43.264-30.094222 11.932444-14.563556 27.591111-32.867556 52.195555-42.424889-14.179556-76.956444 134.044444 76.288 15.530667 279.466667-75.235556 129.792-206.933333 210.688-353.678222 216.334222h-18.801778c-227.640889 0-415.758222-180.593778-427.050667-408.234667-7.523556-156.131556 83.456-151.822222 71.153778-85.333333z m271.232 185.045333a82.531556 82.531556 0 0 0-58.311111 24.462222l-28.216889 28.216889c-11.292444 11.278222-11.292444 28.216889 0 39.495111 5.632 5.646222 13.155556 7.537778 20.693333 7.537778 7.523556 0 15.047111-1.891556 20.693334-7.537778l28.216889-28.216889c9.400889-9.400889 28.216889-9.400889 37.617777 0l9.415111 7.537778a82.531556 82.531556 0 0 0 58.311112 24.448 82.531556 82.531556 0 0 0 58.311111-24.462222l7.537777-7.523556c11.278222-9.400889 28.216889-9.400889 37.617778 0l22.584889 26.339556c11.278222 11.292444 28.216889 11.292444 39.495111 0 11.292444-11.278222 11.292444-28.216889 0-39.509333l-24.462222-24.462223a82.531556 82.531556 0 0 0-58.311111-24.448 82.531556 82.531556 0 0 0-58.311111 24.462223l-7.537778 7.523555c-11.278222 9.400889-28.202667 9.400889-37.617778 0l-9.400889-9.400889a82.531556 82.531556 0 0 0-58.311111-24.462222z" p-id="8086" fill="#0e932e"></path><path d="M512 85.333333c235.648 0 426.666667 191.018667 426.666667 426.666667 0 235.648-191.018667 426.666667-426.666667 426.666667C276.352 938.666667 85.333333 747.648 85.333333 512 85.333333 276.352 276.352 85.333333 512 85.333333z m0 63.203556c-200.732444 0-363.463111 162.730667-363.463111 363.463111S311.267556 875.463111 512 875.463111 875.463111 712.732444 875.463111 512 712.732444 148.536889 512 148.536889z" p-id="8087" fill="#0e932e"></path></svg>