<svg t="1712302869198" class="icon" viewBox="0 0 1024 1024" version="1.1" xmlns="http://www.w3.org/2000/svg" p-id="9410" width="200" height="200"><path d="M476.651218 33.837343c86.000886-6.480295 173.645461 11.335793 250.284871 50.878819 57.019041 29.491956 107.888413 70.867601 148.309963 120.754539 36.822435 45.380959 65.237491 97.620074 82.883542 153.363838 28.547306 90.412399 29.07631 189.487232 1.171365 280.126347-21.538007 70.130775-60.023026 134.914834-111.034096 187.626273-52.125756 54.128413-117.59941 95.352915-189.014907 118.770775-89.817269 29.83203-188.674834 31.522952-279.474539 4.921623-56.461697-16.550258-109.787159-43.803395-156.150554-80.040147-26.299041-20.716162-50.66155-43.954539-72.020073-69.752916-48.82893-58.71941-83.034686-129.539779-98.526938-204.327675-9.267011-45.305387-11.798672-91.980517-7.708339-138.032177 6.263026-69.526199 28.169446-137.635424 64.122804-197.507306 75.921476-129.086347 217.628339-216.985978 367.156901-226.781993m23.380074 178.926052c-84.498893 60.986568-168.997786 121.973137-253.477786 182.978598 0.009446 8.284576-0.009446 16.569151 0 24.863173 181.448266 0 362.896531 0 544.344797-0.009446 0.009446-8.275129 0.009446-16.550258 0.009446-24.834834-87.92797-60.844871-175.903173-121.623616-263.84059-182.449594-1.058007-0.784059-2.474982-0.453432-3.684133-0.557344-7.783911 0.047232-15.567823 0.037786-23.351734 0.009447M277.726937 451.070111c0 4.36428-0.009446 8.728561 0.009447 13.102288 10.598967 1.398081 19.507011 8.152325 26.620221 15.756752 0.047232 16.682509 0.236162 33.374465-0.18893 50.056974-0.075572 15.416679 0.245609 30.833358-0.236162 46.250037 0.198376 28.103321-0.396753 56.197196-0.217269 84.300517 22.510996 0.009446 45.021993 0.009446 67.532988 0.009446 0.453432-60.589815 1.284723-121.179631 1.719262-181.769446 0.481771-1.284723 1.64369-2.134908 2.616679-3.032325 6.735351-5.611218 15.029373-8.917491 23.304502-11.571955-0.018893-4.36428-0.009446-8.738007-0.018893-13.092842-40.374317-0.018893-80.758081-0.009446-121.141845-0.009446m171.217712 0.009446c0 4.345387 0.009446 8.700221-0.009446 13.055056 10.731218 1.4831 19.837638 8.284576 26.931956 16.125166-0.340074 17.834982-0.236162 35.67941-0.226716 53.523837-0.651808 18.845756 0.16059 37.719852-0.491218 56.565609 0.198376 23.398967-0.283395 46.788487-0.217269 70.187454 22.510996 0.009446 45.021993 0.009446 67.532989 0 0.689594-60.731513 1.171365-121.472472 1.889299-182.213432 6.735351-7.406052 16.484133-11.024059 25.751143-14.160295-0.018893-4.36428-0.009446-8.728561-0.009446-13.092841-40.383764 0-80.767528-0.009446-121.151292 0.009446m176.649447 0c0 4.345387 0.009446 8.700221-0.009447 13.055056 10.750111 1.45476 19.790406 8.312915 26.931956 16.106273 0.132251 6.178007-0.415646 12.356015-0.236162 18.543468 0.170037 23.616236-0.37786 47.213579-0.236163 70.820369 0.141697 10.07941-0.406199 20.139926-0.236162 30.219336 0.179483 20.243838-0.387306 40.468782-0.226716 60.71262 22.510996 0.009446 45.012546 0.009446 67.523543 0 0.500664-50.47262 1.114686-100.935793 1.492546-151.408413 0.576236-10.230554-0.321181-20.527232 0.462878-30.710554 6.508635-7.594982 16.484133-11.071292 25.694465-14.25476-0.018893-4.36428-0.009446-8.728561-0.009447-13.092841-40.383764 0-80.767528-0.009446-121.151291 0.009446M261.667897 689.357934c0 8.813579-0.009446 17.636605 0.009446 26.450184 167.032915 0 334.075277-0.009446 501.108192 0.009447 0.028339-8.823026 0.018893-17.636605 0.018893-26.450185-167.051808-0.009446-334.09417-0.009446-501.136531-0.009446M246.553506 731.158672v27.394834h544.354243v-27.394834H246.553506z" fill="#a686ba" p-id="9411"></path><path d="M504.943469 295.514686c12.015941-1.99321 24.84428 0.982435 34.555276 8.388487 11.298007 8.275129 18.278967 22.133137 18.10893 36.142288 0.226716 12.45048-5.167232 24.825387-14.283099 33.289447-8.142878 7.651661-19.21417 12.157638-30.408266 12.110406-10.816236 0.283395-21.632472-3.6369-29.850923-10.6462-10.117196-8.464059-16.191292-21.575793-15.964575-34.772546-0.132251-14.273653 7.103764-28.358376 18.760738-36.586273 5.620664-4.090332 12.214317-6.810923 19.081919-7.925609z" fill="#a686ba" p-id="9412"></path></svg>