<?xml version="1.0" standalone="no"?><!DOCTYPE svg PUBLIC "-//W3C//DTD SVG 1.1//EN" "http://www.w3.org/Graphics/SVG/1.1/DTD/svg11.dtd"><svg t="1706929289095" class="icon" viewBox="0 0 1075 1024" version="1.1" xmlns="http://www.w3.org/2000/svg" p-id="18934" xmlns:xlink="http://www.w3.org/1999/xlink" width="209.9609375" height="200"><path d="M128.8704 153.6c0 19.7376 16.9984 35.7632 37.9648 35.7632 20.992 0 37.9904-16.0256 37.9904-35.7888 0-19.7376-17.024-35.7632-37.9904-35.7632-20.992 0-37.9648 16.0256-37.9648 35.7632z m-49.664 152.3712h896.128c37.632 0 75.264-28.416 75.264-71.0144V78.72C1050.5984 43.264 1020.5184 7.68 975.3344 7.68H79.2064C33.9968 7.68 3.9424 43.1104 3.9424 78.72v156.2368c0 42.5984 30.0544 71.0144 75.264 71.0144z m0-227.2512h888.576v156.2368l-888.576 7.168V78.72z m63.744 400.9984c-7.04 6.656-11.008 15.616-11.008 25.088 0 19.6352 16.8448 35.4048 37.632 35.4048 20.8128 0 37.632-15.9488 37.632-35.4048 0-19.6352-16.8192-35.4304-37.632-35.4304-9.9584 0-19.584 3.6864-26.624 10.3424z m-14.08 375.7824c0 19.7376 16.9984 35.7632 37.9648 35.7632 20.992 0 37.9904-16.0256 37.9904-35.7632 0-19.7632-17.024-35.7888-37.9904-35.7888-20.992 0-37.9648 16.0256-37.9648 35.7888z m-57.2416-200.448h379.5968c22.8608 0 37.9904-14.336 37.9904-35.7376 0-21.5808-15.1296-35.7888-37.9904-35.7888L79.36 590.72l-7.552-164.6592 903.168-7.168 7.5776 157.44c-22.8608 0-37.9648 14.3872-37.9648 35.7888 0 21.376 15.104 35.7632 37.9648 35.7632 18.2272 0 35.584-6.656 48.4608-18.7648a62.464 62.464 0 0 0 19.9424-45.568v-164.6592a62.208 62.208 0 0 0-19.968-45.5936 69.8112 69.8112 0 0 0-48.4352-18.7648H71.6288c-18.2016 0-35.584 6.656-48.4608 18.7648a62.464 62.464 0 0 0-19.9168 45.568v164.6592c0 42.9568 30.4128 71.552 68.3776 71.552z m241.1008 48.5888H71.6288c-18.0224 0-35.2256 6.656-47.9232 18.5856a61.9264 61.9264 0 0 0-19.7632 45.2352v163.4304c0 35.4304 30.0544 71.0144 67.6864 71.0144h218.4192c22.528 0 37.632-14.208 37.632-35.4304 0-21.1968-7.552-35.4048-30.08-35.4048H79.2064l-7.5776-156.2368h233.5488c22.5024 0 37.632-14.208 37.632-35.4304 0.1536-21.5552-7.3984-35.7632-30.08-35.7632z m632.5248 63.8208c0-85.1968-75.264-156.2112-165.632-156.2112-45.2096 0-90.3936 21.1968-128.0256 49.6128-15.104-7.1936-30.08-7.1936-45.2096-7.1936-52.736 0-97.9456 35.4304-112.896 85.2224-48.7936-0.3584-93.9776 23.8336-118.3744 63.488a121.2672 121.2672 0 0 0 0 128.512c24.576 39.6288 69.76 64 118.3744 63.488h429.2608c67.712 0 128-49.6384 128-120.6528 7.5776-56.6272-45.184-106.24-105.472-106.24z m-14.9504 163.4304H501.0688c-30.08 0-60.3136-28.416-60.3136-56.832 0-28.3904 30.0544-56.7808 60.3136-56.7808 7.552 0 15.104 0 22.5024 7.168 15.104 7.1936 30.08 0 37.632-7.168 7.552-7.1936 15.104-21.248 7.552-35.4304v-14.208c0-28.416 45.2096-42.5984 60.3136-21.2224 7.5776 7.1936 22.528 14.208 30.08 7.1936 15.104 0 22.528-7.168 30.08-21.376a93.1072 93.1072 0 0 1 82.816-49.6384c52.736 0 90.3936 35.4304 90.3936 85.2224 0 7.168 0 14.208-7.552 28.416-7.5776 14.1824 0 28.416 7.552 35.4048 7.552 7.1936 30.08 14.208 37.632 7.0144 30.08-14.208 67.712 14.208 67.712 42.624 15.2832 28.2112-7.3984 49.6128-37.4784 49.6128z" fill="#8a8a8a" p-id="18935"></path></svg>