<?xml version="1.0" standalone="no"?><!DOCTYPE svg PUBLIC "-//W3C//DTD SVG 1.1//EN" "http://www.w3.org/Graphics/SVG/1.1/DTD/svg11.dtd"><svg t="1706929217794" class="icon" viewBox="0 0 1024 1024" version="1.1" xmlns="http://www.w3.org/2000/svg" p-id="14680" xmlns:xlink="http://www.w3.org/1999/xlink" width="200" height="200"><path d="M512.006342 0C229.234043 0 0 229.221359 0 511.993658s229.234043 512.006342 512.006342 512.006342S1024.012684 794.765957 1024.012684 511.993658 794.778641 0 512.006342 0z m226.34214 671.847398a38.165509 38.165509 0 0 1 0 53.817299 38.165509 38.165509 0 0 1-53.817299 0l-157.278932-157.278932-159.574697 159.6508a38.165509 38.165509 0 0 1-53.817299 0 38.165509 38.165509 0 0 1 0-53.817299L473.485687 514.606518 313.860255 354.981086a38.165509 38.165509 0 0 1 0-53.817299 38.165509 38.165509 0 0 1 53.817299 0l159.612749 159.676167 157.278931-157.278932a38.165509 38.165509 0 0 1 53.817299 0 38.165509 38.165509 0 0 1 0 53.817299l-157.278931 157.278932z" fill="#d81e06" p-id="14681"></path></svg>