<?xml version="1.0" standalone="no"?><!DOCTYPE svg PUBLIC "-//W3C//DTD SVG 1.1//EN" "http://www.w3.org/Graphics/SVG/1.1/DTD/svg11.dtd"><svg t="1706952140645" class="icon" viewBox="0 0 1024 1024" version="1.1" xmlns="http://www.w3.org/2000/svg" p-id="43258" xmlns:xlink="http://www.w3.org/1999/xlink" width="200" height="200"><path d="M829.866667 230.4C819.2 194.133333 785.066667 170.666667 748.8 170.666667H275.2c-36.266667 0-70.4 23.466667-81.066667 59.733333L42.666667 533.333333h938.666666l-151.466666-302.933333zM277.333333 234.666667l6.4-6.4 87.466667-40.533334h8.533333c2.133333 0 6.4 0 8.533334 2.133334s4.266667 2.133333 6.4 2.133333c2.133333 2.133333 4.266667 2.133333 4.266666 4.266667 6.4 0 6.4 2.133333 6.4 4.266666v17.066667h170.666667c23.466667 0 44.8 4.266667 66.133333 8.533333 21.333333 6.4 38.4 14.933333 53.333334 25.6s27.733333 23.466667 36.266666 38.4c8.533333 14.933333 12.8 29.866667 12.8 46.933334 0 2.133333 0 6.4-2.133333 8.533333l-6.4 6.4c-2.133333 2.133333-6.4 4.266667-10.666667 4.266667s-8.533333 2.133333-12.8 2.133333c-4.266667 0-8.533333 0-12.8-2.133333-4.266667-2.133333-6.4-2.133333-10.666666-4.266667l-6.4-6.4V341.333333c0-10.666667-2.133333-21.333333-8.533334-29.866666-6.4-8.533333-12.8-17.066667-23.466666-23.466667-10.666667-6.4-21.333333-12.8-34.133334-17.066667-12.8-4.266667-27.733333-6.4-40.533333-6.4h-170.666667v17.066667c0 2.133333 0 4.266667-2.133333 6.4-2.133333 2.133333-2.133333 4.266667-4.266667 4.266667-2.133333 2.133333-4.266667 2.133333-6.4 2.133333-2.133333 4.266667-6.4 4.266667-8.533333 4.266667h-2.133333-2.133334-2.133333s-2.133333 0-2.133333-2.133334L288 256c-4.266667-2.133333-6.4-4.266667-6.4-6.4-2.133333-2.133333-2.133333-4.266667-2.133333-6.4-4.266667-4.266667-4.266667-6.4-2.133334-8.533333z m471.466667 213.333333l-6.4 6.4-89.6 40.533333s-2.133333 0-2.133333 2.133334h-2.133334-2.133333-2.133333c-2.133333 0-6.4 0-8.533334-2.133334s-4.266667-2.133333-6.4-4.266666-4.266667-2.133333-4.266666-4.266667c-2.133333-2.133333-2.133333-4.266667-2.133334-6.4v-19.2h-170.666666c-23.466667 0-46.933333-4.266667-66.133334-10.666667-21.333333-6.4-38.4-14.933333-53.333333-25.6s-27.733333-23.466667-36.266667-38.4c-14.933333-10.666667-19.2-27.733333-19.2-44.8 0-2.133333 0-6.4 2.133334-8.533333l6.4-6.4c2.133333-2.133333 6.4-4.266667 10.666666-4.266667 4.266667-2.133333 8.533333-2.133333 12.8-2.133333 4.266667 0 8.533333 0 12.8 2.133333 4.266667 2.133333 6.4 2.133333 10.666667 4.266667l6.4 6.4c2.133333 2.133333 2.133333 4.266667 2.133333 8.533333 0 10.666667 2.133333 21.333333 8.533334 29.866667 6.4 8.533333 12.8 17.066667 23.466666 23.466667 10.666667 6.4 21.333333 12.8 34.133334 17.066666 12.8 4.266667 27.733333 6.4 40.533333 6.4h170.666667v-17.066666c0-2.133333 0-4.266667 2.133333-6.4 2.133333-2.133333 2.133333-4.266667 4.266667-4.266667 2.133333-2.133333 4.266667-2.133333 6.4-2.133333s6.4-4.266667 8.533333-4.266667H646.4s2.133333 0 2.133333 2.133333l89.6 40.533334c4.266667 2.133333 6.4 4.266667 6.4 6.4 2.133333 2.133333 2.133333 4.266667 2.133334 6.4 4.266667 4.266667 4.266667 6.4 2.133333 8.533333zM42.666667 768c0 46.933333 38.4 85.333333 85.333333 85.333333h768c46.933333 0 85.333333-38.4 85.333333-85.333333v-170.666667H42.666667v170.666667z m672-64h106.666666c17.066667 0 32 14.933333 32 32s-14.933333 32-32 32h-106.666666c-17.066667 0-32-14.933333-32-32s14.933333-32 32-32z" p-id="43259" fill="#1890FF"></path></svg>